<svg class="img-fluid" id="outputsvg" xmlns="http://www.w3.org/2000/svg" style="transform: none; transform-origin: 50% 50%; cursor: move; max-height: none;" width="654" height="560" viewBox="0 0 6540 5600">
  <g id="l1ErmhdblnPCfIwlLq5iLT1" fill="rgb(0,80,152)" style="transform: none;">
    <g style="transform: none;">
      <path id="p9O97bcIe" d="M1312 5074 c-200 -70 -268 -266 -206 -597 97 -516 576 -1298 1240 -2027 543 -595 1127 -1069 1814 -1473 74 -43 140 -86 146 -95 7 -10 15 -14 19 -10 8 7 188 -85 220 -112 24 -21 80 -50 96 -50 18 0 -45 52 -117 96 -35 21 -132 84 -216 139 -132 87 -194 131 -386 273 l-34 24 104 39 c191 72 413 197 578 325 66 52 222 207 284 283 196 240 326 525 382 834 23 129 23 428 0 557 -23 125 -60 257 -101 355 -43 105 -160 338 -198 395 -141 212 -335 398 -475 457 -20 8 -73 37 -117 64 -362 217 -824 326 -1234 290 -146 -12 -381 -51 -381 -63 0 -3 26 -12 58 -18 103 -20 315 -92 413 -142 202 -101 398 -269 487 -418 63 -105 88 -210 74 -309 -16 -112 -67 -206 -166 -306 -91 -92 -158 -129 -403 -225 -201 -79 -297 -144 -346 -235 -17 -31 -22 -56 -21 -115 1 -85 26 -154 82 -224 119 -146 378 -240 655 -235 l112 1 -4 -28 c-1 -16 -16 -90 -32 -164 -16 -74 -29 -144 -29 -155 0 -44 -8 -45 -150 -25 -523 73 -911 248 -1113 500 -51 64 -69 97 -93 167 -26 79 -29 101 -29 213 0 138 19 215 74 302 72 113 166 181 321 232 206 67 351 142 443 230 104 100 132 217 72 305 -104 154 -402 214 -765 155 -47 -7 -88 -14 -92 -14 -11 0 -10 49 1 107 5 26 15 84 21 128 6 44 14 91 16 103 5 24 4 24 -53 -9 -265 -149 -512 -366 -663 -582 -51 -74 -77 -103 -82 -93 -18 33 -60 163 -78 243 -56 250 -27 444 92 610 58 80 146 124 288 143 130 18 334 -11 405 -57 31 -20 53 -17 29 5 -56 51 -335 154 -559 206 -92 21 -322 21 -383 0z"></path>
      <path id="pHMHoBBOw" d="M1347 3523 c-92 -290 -103 -634 -32 -930 144 -592 616 -1096 1235 -1318 301 -108 624 -146 940 -111 133 15 180 24 180 35 -1 3 -33 26 -73 51 -229 141 -646 468 -892 699 -344 323 -669 683 -935 1036 -128 169 -301 422 -355 520 -20 36 -40 65 -45 65 -4 0 -14 -21 -23 -47z"></path>
      <path id="po4pRyjB8" d="M4975 718 c-32 -17 -76 -61 -91 -90 -17 -32 -18 -101 -3 -131 17 -33 60 -77 92 -93 34 -18 137 -20 169 -4 62 32 108 101 108 162 0 44 -36 105 -82 138 -36 26 -49 30 -107 30 -36 0 -75 -6 -86 -12z m161 -92 c46 -46 47 -92 4 -135 -54 -53 -133 -48 -174 11 -32 46 -11 129 38 148 12 5 38 9 60 9 30 1 45 -6 72 -33z"></path>
    </g>
  </g>
  <g id="l6onxZQg4MSFzos0rAjYtEh" fill="rgb(248,195,0)" style="transform: none;">
    <g style="transform: none;">
      <path id="pwbZ2vRLN" d="M1312 5074 c-200 -70 -268 -266 -206 -597 97 -516 576 -1298 1240 -2027 543 -595 1127 -1069 1814 -1473 74 -43 140 -86 146 -95 7 -10 15 -14 19 -10 8 7 188 -85 220 -112 24 -21 80 -50 96 -50 18 0 -45 52 -117 96 -126 77 -371 241 -478 319 -483 354 -1080 882 -1438 1270 -71 77 -151 163 -177 190 -26 28 -68 75 -92 105 -24 30 -48 57 -52 58 -11 5 -185 223 -293 367 -502 667 -690 1229 -522 1560 83 164 162 220 348 245 130 18 334 -11 405 -57 31 -20 53 -17 29 5 -56 51 -335 154 -559 206 -92 21 -322 21 -383 0z"></path>
      <path id="p1DxA5QwiE" d="M4274 4491 c-53 -24 -109 -98 -131 -170 -35 -114 -18 -337 41 -568 24 -95 24 -138 0 -147 -17 -7 -20 1 -29 74 -25 216 -307 591 -532 708 -70 36 -133 54 -133 37 0 -10 72 -69 88 -71 42 -7 205 -206 296 -366 118 -205 179 -378 180 -513 l1 -79 50 -38 c63 -48 335 -184 395 -197 107 -24 170 -1 170 63 0 18 -38 178 -85 357 -134 516 -144 619 -55 619 57 0 163 -95 357 -317 63 -73 121 -133 129 -133 10 0 14 14 14 50 0 178 -344 593 -568 687 -59 25 -140 26 -188 4z"></path>
      <path id="pweSy2qxC" d="M4355 3010 c-64 -26 -103 -116 -85 -197 23 -103 88 -163 176 -163 62 0 98 24 125 84 44 97 -2 226 -98 275 -25 13 -89 14 -118 1z"></path>
    </g>
  </g>
</svg>